<!--?xml version="1.0" standalone="no"?-->
              <svg id="sw-js-blob-svg" viewBox="0 0 100 100" xmlns="http://www.w3.org/2000/svg" version="1.1">
                    <defs> 
                        <linearGradient id="sw-gradient" x1="0" x2="1" y1="1" y2="0">
                            <stop id="stop1" stop-color="rgba(70, 129, 137, 1)" offset="0%"></stop>
                            <stop id="stop2" stop-color="rgba(31.14, 97.01, 105.942, 1)" offset="100%"></stop>
                        </linearGradient>
                    </defs>
                <path fill="url(#sw-gradient)" d="M20.7,-25.5C26.6,-19.6,31.2,-13,33,-5.4C34.8,2.1,33.8,10.5,30.3,18.4C26.8,26.2,20.8,33.6,13.5,35.6C6.2,37.6,-2.5,34.2,-11.6,31.2C-20.6,28.2,-30,25.5,-35.9,19C-41.8,12.5,-44.1,2.1,-40.9,-5.6C-37.6,-13.4,-28.8,-18.7,-21.1,-24.2C-13.4,-29.8,-6.7,-35.7,0.3,-36C7.4,-36.4,14.7,-31.4,20.7,-25.5Z" width="100%" height="100%" transform="translate(50 50)" stroke-width="0" style="transition: all 0.3s ease 0s;" stroke="url(#sw-gradient)"></path>
              </svg>