<svg width="207" height="134" viewBox="0 0 207 134" fill="none" xmlns="http://www.w3.org/2000/svg">
<path d="M46.592 120.88C40.6187 120.88 35.4133 120.197 30.976 118.832C26.624 117.552 23.2533 115.205 20.864 111.792C18.56 108.464 17.4507 103.771 17.536 97.712L17.92 86.064C17.92 82.9067 17.536 80.5173 16.768 78.896C16.0853 77.1893 15.0613 76.08 13.696 75.568C12.416 74.9707 10.7947 74.672 8.832 74.672H4.608V63.408H8.704C10.8373 63.408 12.5867 63.0667 13.952 62.384C15.4027 61.7013 16.4693 60.592 17.152 59.056C17.8347 57.52 18.176 55.3867 18.176 52.656L17.92 41.648C17.92 36.6987 18.944 32.56 20.992 29.232C23.04 25.8187 25.984 23.2587 29.824 21.552C33.664 19.8453 38.2293 18.992 43.52 18.992H52.864V30.384H41.216C37.9733 30.384 35.5413 31.2373 33.92 32.944C32.384 34.5653 31.616 37.04 31.616 40.368L31.872 51.12C31.872 53.8507 31.488 56.368 30.72 58.672C29.952 60.8907 28.8 62.896 27.264 64.688C25.8133 66.3947 24.0213 67.8453 21.888 69.04C23.936 69.9787 25.6427 71.344 27.008 73.136C28.4587 74.928 29.568 77.0613 30.336 79.536C31.1893 82.0107 31.616 84.8267 31.616 87.984L31.232 97.584C31.232 100.485 31.7013 102.832 32.64 104.624C33.5787 106.416 35.0293 107.739 36.992 108.592C39.04 109.36 41.6427 109.744 44.8 109.744H52.736V120.88H46.592Z" fill="#468189"/>
<path d="M155.544 120.88H149.4V109.744H157.336C160.579 109.744 163.181 109.36 165.144 108.592C167.107 107.739 168.557 106.416 169.496 104.624C170.435 102.832 170.904 100.485 170.904 97.584L170.52 87.984C170.52 84.8267 170.904 82.0107 171.672 79.536C172.525 77.0613 173.635 74.928 175 73.136C176.451 71.344 178.2 69.9787 180.248 69.04C178.115 67.8453 176.28 66.3947 174.744 64.688C173.293 62.896 172.184 60.8907 171.416 58.672C170.648 56.368 170.264 53.8507 170.264 51.12L170.52 40.368C170.52 37.04 169.709 34.5653 168.088 32.944C166.552 31.2373 164.163 30.384 160.92 30.384H149.272V18.992H158.616C163.992 18.992 168.557 19.8453 172.312 21.552C176.152 23.2587 179.096 25.8187 181.144 29.232C183.192 32.56 184.216 36.6987 184.216 41.648L183.96 52.656C183.96 55.3867 184.301 57.52 184.984 59.056C185.667 60.592 186.733 61.7013 188.184 62.384C189.635 63.0667 191.384 63.408 193.432 63.408H197.528V74.672H193.304C191.427 74.672 189.805 74.9707 188.44 75.568C187.075 76.08 186.008 77.1893 185.24 78.896C184.557 80.5173 184.216 82.9067 184.216 86.064L184.6 97.712C184.685 103.771 183.533 108.464 181.144 111.792C178.84 115.205 175.469 117.552 171.032 118.832C166.68 120.197 161.517 120.88 155.544 120.88Z" fill="#468189"/>
<path d="M126.078 84.9688C126.078 89.0312 125.094 92.5625 123.125 95.5625C121.156 98.5625 118.281 100.875 114.5 102.5C110.75 104.125 106.188 104.938 100.812 104.938C98.4375 104.938 96.1094 104.781 93.8281 104.469C91.5781 104.156 89.4062 103.703 87.3125 103.109C85.25 102.484 83.2812 101.719 81.4062 100.812V87.3125C84.6562 88.75 88.0312 90.0469 91.5312 91.2031C95.0312 92.3594 98.5 92.9375 101.938 92.9375C104.312 92.9375 106.219 92.625 107.656 92C109.125 91.375 110.188 90.5156 110.844 89.4219C111.5 88.3281 111.828 87.0781 111.828 85.6719C111.828 83.9531 111.25 82.4844 110.094 81.2656C108.938 80.0469 107.344 78.9062 105.312 77.8438C103.312 76.7812 101.047 75.6406 98.5156 74.4219C96.9219 73.6719 95.1875 72.7656 93.3125 71.7031C91.4375 70.6094 89.6562 69.2812 87.9688 67.7188C86.2812 66.1562 84.8906 64.2656 83.7969 62.0469C82.7344 59.7969 82.2031 57.1094 82.2031 53.9844C82.2031 49.8906 83.1406 46.3906 85.0156 43.4844C86.8906 40.5781 89.5625 38.3594 93.0312 36.8281C96.5312 35.2656 100.656 34.4844 105.406 34.4844C108.969 34.4844 112.359 34.9062 115.578 35.75C118.828 36.5625 122.219 37.75 125.75 39.3125L121.062 50.6094C117.906 49.3281 115.078 48.3438 112.578 47.6562C110.078 46.9375 107.531 46.5781 104.938 46.5781C103.125 46.5781 101.578 46.875 100.297 47.4688C99.0156 48.0312 98.0469 48.8438 97.3906 49.9062C96.7344 50.9375 96.4062 52.1406 96.4062 53.5156C96.4062 55.1406 96.875 56.5156 97.8125 57.6406C98.7812 58.7344 100.219 59.7969 102.125 60.8281C104.062 61.8594 106.469 63.0625 109.344 64.4375C112.844 66.0938 115.828 67.8281 118.297 69.6406C120.797 71.4219 122.719 73.5312 124.062 75.9688C125.406 78.375 126.078 81.375 126.078 84.9688Z" fill="#031926"/>
</svg>
